<?xml version="1.0" encoding="UTF-8" standalone="no"?>
<!-- Created with Inkscape (http://www.inkscape.org/) -->

<svg
   width="1300"
   height="512"
   viewBox="0 0 343.95833 135.46667"
   version="1.1"
   id="svg1"
   xmlns="http://www.w3.org/2000/svg"
   xmlns:svg="http://www.w3.org/2000/svg">
  <defs
     id="defs1" />
  <rect
     style="fill:#1e1e1e;fill-opacity:1;stroke:none;stroke-width:2.85201;stroke-linecap:round;stroke-linejoin:round;stroke-opacity:0"
     id="rect2"
     width="343.95834"
     height="135.46667"
     x="-1.3856104e-16"
     y="-1.3856104e-16" />
  <rect
     style="fill:#7733cc;fill-opacity:1;stroke:#000000;stroke-width:0.628001;stroke-linecap:round;stroke-linejoin:round;stroke-opacity:0"
     id="rect1"
     width="261.83865"
     height="107.58603"
     x="17.247334"
     y="14.601499" />
  <g
     id="text1">
    <path
       style="color:#000000;-inkscape-font-specification:'Baloo Chettan 2, ';fill:#ffffff;stroke-linecap:round;stroke-linejoin:round;-inkscape-stroke:none"
       d="m 43.920953,102.02323 q -0.529165,0.21166 -1.587495,0.42333 -1.05833,0.3175 -2.328326,0.3175 -4.550819,0 -4.550819,-3.809989 V 53.551714 q 0.529165,-0.211666 1.587495,-0.423332 1.164163,-0.317499 2.434159,-0.317499 4.444986,0 4.444986,3.915821 z m -9.736636,-64.1348 q 0,-2.222493 1.481662,-3.704155 1.587495,-1.587495 4.021654,-1.587495 2.434159,0 3.915821,1.587495 1.481662,1.481662 1.481662,3.704155 0,2.222493 -1.481662,3.809988 -1.481662,1.481662 -3.915821,1.481662 -2.434159,0 -4.021654,-1.481662 -1.481662,-1.587495 -1.481662,-3.809988 z m 60.113061,32.490731 q 0,-5.926648 -3.386656,-8.678306 -3.280823,-2.751658 -8.889972,-2.751658 -4.23332,0 -7.514143,1.05833 -3.280823,1.05833 -5.609149,2.434159 v 39.581544 q -0.529165,0.21166 -1.587495,0.42333 -1.05833,0.3175 -2.328326,0.3175 -4.550819,0 -4.550819,-3.809989 V 62.865018 q 0,-2.222493 0.846664,-3.598322 0.952497,-1.481662 3.17499,-2.857491 2.751658,-1.693328 7.302477,-3.069157 4.550819,-1.375829 10.265801,-1.375829 9.630803,0 15.134119,4.339153 5.609151,4.339153 5.609151,13.652457 v 32.067401 q -0.52917,0.21166 -1.69333,0.42333 -1.05833,0.3175 -2.222493,0.3175 -4.550819,0 -4.550819,-3.809989 z m 58.843062,18.838274 q 0,6.773312 -4.97415,10.5833 -4.97415,3.809985 -14.39329,3.809985 -4.02165,0 -7.40831,-0.74083 -3.38665,-0.635 -5.82081,-1.69333 -2.32833,-1.16416 -3.70416,-2.539988 -1.26999,-1.481662 -1.26999,-2.963324 0,-1.269996 0.635,-2.434159 0.74083,-1.164163 2.11666,-2.010827 2.85749,2.11666 6.66748,3.809988 3.80998,1.587495 8.6783,1.587495 11.00663,0 11.00663,-7.40831 0,-6.032481 -7.30247,-7.831642 l -8.78414,-2.328326 q -6.45582,-1.693328 -9.41914,-4.868318 -2.96332,-3.280823 -2.96332,-8.360807 0,-2.751658 1.05833,-5.29165 1.16416,-2.539992 3.49249,-4.444986 2.32832,-1.904994 5.71498,-2.963324 3.49249,-1.164163 8.14914,-1.164163 7.40831,0 11.95913,2.222493 4.55082,2.11666 4.55082,4.974151 0,1.375829 -0.74083,2.434159 -0.635,1.05833 -1.79917,1.587495 -1.90499,-1.269996 -5.39748,-2.751658 -3.49249,-1.481662 -8.25497,-1.481662 -4.76249,0 -7.61998,1.799161 -2.75166,1.799161 -2.75166,5.079984 0,2.434159 1.5875,4.127487 1.58749,1.693328 5.29165,2.539992 l 7.30248,1.799161 q 7.19664,1.799161 10.79496,5.397483 3.59832,3.492489 3.59832,9.52497 z m 21.80166,12.805795 q -0.52916,0.21166 -1.58749,0.42333 -1.05833,0.3175 -2.32833,0.3175 -4.55082,0 -4.55082,-3.809989 V 53.551714 q 0.52917,-0.211666 1.5875,-0.423332 1.16416,-0.317499 2.43416,-0.317499 4.44498,0 4.44498,3.915821 z m -9.73663,-64.1348 q 0,-2.222493 1.48166,-3.704155 1.58749,-1.587495 4.02165,-1.587495 2.43416,0 3.91582,1.587495 1.48166,1.481662 1.48166,3.704155 0,2.222493 -1.48166,3.809988 -1.48166,1.481662 -3.91582,1.481662 -2.43416,0 -4.02165,-1.481662 -1.48166,-1.587495 -1.48166,-3.809988 z m 42.9681,65.72229 q -7.40831,0 -12.06496,-3.28082 -4.55082,-3.280823 -4.55082,-10.900799 V 39.158426 q 0.52917,-0.211666 1.5875,-0.423332 1.16416,-0.317499 2.43415,-0.317499 4.44499,0 4.44499,3.809988 v 12.170795 h 17.35661 q 0.3175,0.529165 0.635,1.481662 0.3175,0.846664 0.3175,1.904994 0,3.598322 -3.17499,3.598322 h -15.13412 v 27.51658 q 0,4.23332 2.32833,6.032481 2.43416,1.693328 6.77331,1.693328 1.79916,0 4.02165,-0.634998 2.2225,-0.634998 3.70416,-1.481662 0.635,0.634998 1.16416,1.587495 0.52917,0.952497 0.52917,2.222493 0,2.328327 -2.75166,3.809987 -2.75166,1.48166 -7.61998,1.48166 z m 22.11916,-50.059006 q 0.52917,-0.211666 1.5875,-0.423332 1.16416,-0.317499 2.43416,-0.317499 4.44498,0 4.44498,3.915821 v 27.199081 q 0,6.879145 3.59832,9.842469 3.59833,2.857491 9.94831,2.857491 4.23332,0 7.19664,-0.846664 2.96332,-0.952497 4.65665,-1.904994 V 53.551714 q 0.52917,-0.211666 1.5875,-0.423332 1.16416,-0.317499 2.32832,-0.317499 4.55082,0 4.55082,3.915821 v 36.829884 q 0,2.222493 -0.635,3.598322 -0.52916,1.269996 -2.75165,2.539992 -2.43416,1.375828 -6.77332,2.645828 -4.23332,1.26999 -10.2658,1.26999 -10.5833,0 -16.29828,-4.656649 -5.60915,-4.656652 -5.60915,-14.604954 z m 56.72641,41.063204 q 3.28082,-4.444986 6.87914,-8.678306 3.59833,-4.23332 7.19665,-8.678306 -4.44499,-5.397483 -8.25498,-10.159968 -3.80998,-4.868318 -7.83164,-10.054135 0.42333,-2.11666 1.48166,-3.280823 1.16417,-1.164163 2.96333,-1.164163 1.79916,0 2.75166,0.952497 1.05833,0.846664 2.22249,2.328326 2.75166,3.704155 5.60915,7.937475 2.96332,4.127487 6.13831,8.254974 3.91582,-4.974151 7.40831,-9.419137 3.49249,-4.550819 7.19665,-9.948302 0.52916,-0.105833 1.16416,-0.105833 2.22249,0 3.49249,1.05833 1.26999,0.952497 1.26999,2.645825 0,1.164163 -0.52916,2.222493 -0.42333,1.05833 -1.48166,2.434159 -3.28083,4.021654 -6.77332,8.254974 -3.38665,4.127487 -6.77331,8.149141 4.12749,5.397483 8.25498,10.689133 4.23332,5.185817 8.3608,10.477467 -0.21166,2.010831 -1.37583,3.174991 -1.16416,1.16416 -3.06915,1.16416 -1.79916,0 -2.96333,-0.84666 -1.05833,-0.9525 -2.53999,-2.857493 -2.85749,-3.809988 -5.92665,-8.043308 -2.96332,-4.339153 -5.92664,-8.360807 -3.70416,4.868318 -7.51415,9.948302 -3.70415,5.079984 -7.19664,10.054136 h -1.48166 q -2.43416,0 -3.70416,-1.05833 -1.16416,-1.05833 -1.16416,-2.645826 0,-0.846664 0.3175,-1.693328 0.42333,-0.952497 1.79916,-2.751658 z"
       id="path1" />
    <path
       style="color:#000000;-inkscape-font-specification:'Baloo Chettan 2, ';fill:#000000;fill-opacity:0;stroke-linecap:round;stroke-linejoin:round;-inkscape-stroke:none"
       d="m 39.6875,32.464844 c -1.65153,0 -3.033,0.542765 -4.115234,1.625 -1.01116,1.011159 -1.519532,2.287769 -1.519532,3.798828 0,1.511058 0.50684,2.819549 1.515625,3.90039 a 0.13230472,0.13230472 0 0 0 0.0078,0.0059 c 1.082985,1.010786 2.461715,1.517578 4.111328,1.517578 1.649613,0 2.996379,-0.508097 4.009766,-1.521484 a 0.13230472,0.13230472 0 0 0 0.002,-0.002 c 1.008785,-1.080841 1.517578,-2.389332 1.517578,-3.90039 0,-1.509467 -0.50854,-2.784271 -1.517578,-3.794922 C 42.686788,33.009003 41.33903,32.464844 39.6875,32.464844 Z m 131.02148,0 c -1.65153,0 -3.033,0.542765 -4.11523,1.625 -1.01116,1.011159 -1.52148,2.287769 -1.52148,3.798828 0,1.511058 0.50879,2.819549 1.51757,3.90039 a 0.13230472,0.13230472 0 0 0 0.008,0.0059 c 1.08298,1.010787 2.46171,1.517578 4.11132,1.517578 1.64962,0 2.99638,-0.508097 4.00977,-1.521484 a 0.13230472,0.13230472 0 0 0 0.002,-0.002 c 1.00879,-1.080841 1.51758,-2.389332 1.51758,-3.90039 0,-1.509467 -0.50854,-2.784271 -1.51758,-3.794922 -1.01243,-1.084747 -2.36018,-1.628906 -4.01172,-1.628906 z M 39.6875,32.728516 c 1.594012,0 2.855242,0.514964 3.818359,1.546875 a 0.13230472,0.13230472 0 0 0 0.0039,0.002 c 0.964387,0.964387 1.443359,2.159065 1.443359,3.611328 0,1.452262 -0.480504,2.682934 -1.447266,3.71875 -0.961769,0.960065 -2.224168,1.439453 -3.818359,1.439453 -1.594248,0 -2.894587,-0.480632 -3.927734,-1.443359 -0.964674,-1.035123 -1.44336,-2.264144 -1.44336,-3.714844 0,-1.452263 0.478972,-2.646941 1.44336,-3.611328 1.034423,-1.034423 2.333722,-1.548828 3.927734,-1.548828 z m 131.02148,0 c 1.59402,0 2.85525,0.514964 3.81836,1.546875 a 0.13230472,0.13230472 0 0 0 0.004,0.002 c 0.96439,0.964387 1.44336,2.159065 1.44336,3.611328 0,1.452262 -0.48051,2.682934 -1.44727,3.71875 -0.96176,0.960065 -2.22416,1.439453 -3.81836,1.439453 -1.59424,0 -2.89459,-0.480632 -3.92773,-1.443359 -0.96467,-1.035123 -1.44336,-2.264144 -1.44336,-3.714844 0,-1.452263 0.47897,-2.646941 1.44336,-3.611328 1.03442,-1.034423 2.33372,-1.548828 3.92773,-1.548828 z m 24.8711,5.55664 c -0.85493,0 -1.67536,0.106814 -2.46094,0.320313 -0.70971,0.141942 -1.24443,0.28293 -1.61133,0.429687 a 0.13230472,0.13230472 0 0 0 -0.082,0.123047 v 50.271484 c 0,5.106315 1.53218,8.792187 4.60547,11.007813 a 0.13230472,0.13230472 0 0 0 0.002,0 c 3.13144,2.20624 7.18223,3.30469 12.14063,3.30469 3.25896,0 5.81853,-0.49288 7.68164,-1.4961 1.85991,-1.00148 2.82226,-2.323399 2.82226,-3.927731 0,-0.865037 -0.18197,-1.628339 -0.54687,-2.285156 -0.35762,-0.643725 -0.75182,-1.183462 -1.18555,-1.617187 a 0.13230472,0.13230472 0 0 0 -0.1582,-0.02148 c -0.9754,0.557374 -2.20158,1.047552 -3.67578,1.46875 -1.47259,0.420741 -2.8005,0.63086 -3.98438,0.63086 -2.87237,0 -5.10119,-0.560611 -6.69336,-1.666016 l -0.002,-0.002 c -1.51108,-1.168939 -2.27539,-3.129137 -2.27539,-5.925781 V 61.515625 h 15.00195 c 1.08332,0 1.92236,-0.310831 2.48047,-0.943359 0.55811,-0.632528 0.82813,-1.568216 0.82813,-2.78711 0,-0.717382 -0.109,-1.366716 -0.32618,-1.947265 -0.21352,-0.640576 -0.42681,-1.141691 -0.64648,-1.507813 a 0.13230472,0.13230472 0 0 0 -0.11328,-0.06445 H 200.15625 V 42.228516 c 0,-1.295718 -0.38233,-2.295627 -1.15625,-2.958985 -0.77392,-0.663357 -1.91936,-0.984375 -3.41992,-0.984375 z m 0,0.265625 c 1.46276,0 2.53835,0.313285 3.24609,0.919922 0.70775,0.606637 1.06641,1.513541 1.06641,2.757813 v 12.169921 a 0.13230472,0.13230472 0 0 0 0.13281,0.132813 h 17.26953 c 0.19513,0.336851 0.39518,0.789046 0.5957,1.390625 a 0.13230472,0.13230472 0 0 0 0.002,0.0039 c 0.2053,0.547474 0.30859,1.167052 0.30859,1.859375 0,1.179985 -0.25955,2.044417 -0.75976,2.611328 -0.50022,0.566912 -1.24987,0.855469 -2.28321,0.855469 h -15.13281 a 0.13230472,0.13230472 0 0 0 -0.13281,0.130859 v 27.517579 c 0,2.846464 0.78696,4.906584 2.3789,6.136718 a 0.13230472,0.13230472 0 0 0 0.006,0.0039 c 1.65303,1.149928 3.93964,1.716797 6.84961,1.716796 1.21501,0 2.56592,-0.214702 4.05664,-0.640625 1.44402,-0.412574 2.63692,-0.899397 3.6211,-1.449218 0.39338,0.404289 0.76214,0.891766 1.0957,1.492187 0.34066,0.613178 0.51172,1.329914 0.51172,2.158203 0,1.500102 -0.87267,2.719301 -2.68164,3.693361 -1.80577,0.97233 -4.32452,1.4668 -7.55664,1.4668 -4.91934,0 -8.91086,-1.08768 -11.98828,-3.25586 -2.99447,-2.158804 -4.4961,-5.739329 -4.4961,-10.792973 V 39.259766 c 0.33933,-0.128873 0.81777,-0.261601 1.48242,-0.394532 a 0.13230472,0.13230472 0 0 0 0.008,-0.002 c 0.76432,-0.208452 1.56475,-0.3125 2.40039,-0.3125 z M 82.021484,51.832031 c -3.8206,0 -7.256127,0.459202 -10.304687,1.38086 -3.041197,0.919431 -5.485444,1.946421 -7.333985,3.083984 -1.492539,0.923953 -2.566562,1.886961 -3.216796,2.898437 a 0.13230472,0.13230472 0 0 0 -0.002,0.002 c -0.581105,0.944297 -0.865234,2.169509 -0.865234,3.667968 v 36.087891 c 0,1.296335 0.393793,2.296125 1.185547,2.958985 0.791754,0.66286 1.962649,0.98437 3.498047,0.98437 0.853421,0 1.636903,-0.10661 2.353515,-0.32031 0.709711,-0.14194 1.244435,-0.28293 1.611329,-0.42969 a 0.13230472,0.13230472 0 0 0 0.08203,-0.12304 V 62.527344 c 1.531103,-0.898109 3.362686,-1.699405 5.517578,-2.394532 2.171391,-0.700448 4.663423,-1.050781 7.474609,-1.050781 3.717797,0 6.645916,0.91012 8.804688,2.720703 a 0.13230472,0.13230472 0 0 0 0.002,0 c 2.221692,1.805125 3.337891,4.650276 3.337891,8.576172 v 28.574219 c 0,1.296335 0.391839,2.296125 1.183593,2.958985 0.791754,0.66286 1.96265,0.98437 3.498047,0.98437 0.782703,0 1.532214,-0.10777 2.246094,-0.32031 0.78027,-0.14187 1.34903,-0.2818 1.71875,-0.42969 a 0.13230472,0.13230472 0 0 0 0.084,-0.12304 V 69.955078 c 0,-6.235422 -1.88449,-10.835066 -5.660152,-13.755859 -3.698337,-2.915997 -8.774447,-4.367188 -15.214844,-4.367188 z m 52.597656,0 c -3.11394,0 -5.84321,0.388999 -8.1875,1.169922 -2.2711,0.709719 -4.19252,1.705983 -5.75976,2.988281 -1.56616,1.2814 -2.7445,2.779882 -3.5293,4.492188 a 0.13230472,0.13230472 0 0 0 -0.002,0.0039 c -0.71208,1.708982 -1.06836,3.4904 -1.06836,5.341797 0,3.412376 0.99973,6.236801 2.99804,8.449219 a 0.13230472,0.13230472 0 0 0 0.002,0.002 c 2.00023,2.143114 5.16177,3.773478 9.48046,4.90625 l 8.78516,2.328125 a 0.13230472,0.13230472 0 0 0 0.002,0 c 2.41748,0.595612 4.21814,1.539822 5.41211,2.820312 1.19397,1.280491 1.78907,2.898678 1.78907,4.882813 0,2.436676 -0.89282,4.23536 -2.69336,5.447265 -1.80055,1.211906 -4.52566,1.830079 -8.17969,1.830079 -3.22952,0 -6.10441,-0.526606 -8.625,-1.576172 l -0.004,-0.002 c -2.5307,-1.125079 -4.7438,-2.391313 -6.63867,-3.794922 a 0.13230472,0.13230472 0 0 0 -0.14844,-0.0059 c -0.93124,0.573072 -1.6522,1.257588 -2.1582,2.052735 a 0.13230472,0.13230472 0 0 0 -0.006,0.0078 c -0.43302,0.793862 -0.65039,1.629335 -0.65039,2.498047 0,1.025571 0.4419,2.044511 1.30273,3.048828 a 0.13230472,0.13230472 0 0 0 0.006,0.0078 c 0.93042,0.93041 2.17674,1.783681 3.73829,2.564451 a 0.13230472,0.13230472 0 0 0 0.006,0.004 c 1.63347,0.7102 3.58228,1.27653 5.84571,1.70117 2.26845,0.49622 4.74828,0.74219 7.4375,0.74219 6.29725,0 11.12456,-1.27144 14.47265,-3.83594 3.34614,-2.563002 5.02735,-6.141532 5.02735,-10.689453 0,-4.047344 -1.21321,-7.262446 -3.63867,-9.617188 -2.42227,-2.422265 -6.04262,-4.230379 -10.85547,-5.433593 l -7.30274,-1.798829 a 0.13230472,0.13230472 0 0 0 -0.002,0 c -2.45476,-0.561088 -4.19387,-1.402497 -5.22461,-2.501953 -1.0367,-1.105809 -1.55273,-2.443097 -1.55273,-4.037109 0,-2.150228 0.88779,-3.789466 2.6914,-4.96875 1.8768,-1.181184 4.3913,-1.777344 7.54883,-1.777344 3.16126,0 5.8947,0.491373 8.20312,1.470703 2.32378,0.985844 4.1163,1.901098 5.375,2.740235 a 0.13230472,0.13230472 0 0 0 0.12891,0.0098 c 0.79722,-0.362371 1.41886,-0.912082 1.85547,-1.638672 0.50694,-0.726437 0.76172,-1.565157 0.76172,-2.503906 0,-0.98761 -0.39637,-1.914077 -1.17188,-2.761719 -0.77499,-0.847089 -1.92734,-1.620103 -3.45312,-2.330078 -3.05931,-1.494082 -7.06548,-2.236328 -12.01758,-2.236328 z m -52.597656,0.263672 c 6.400661,0 11.411371,1.442965 15.050782,4.3125 a 0.13230472,0.13230472 0 0 0 0.002,0 c 3.703201,2.864738 5.556641,7.364571 5.556641,13.546875 v 31.966802 c -0.34035,0.1282 -0.85097,0.26125 -1.58398,0.39453 a 0.13230472,0.13230472 0 0 0 -0.0137,0.004 c -0.69276,0.20783 -1.421462,0.31055 -2.185544,0.31055 -1.498479,0 -2.602941,-0.31279 -3.328125,-0.91992 -0.725184,-0.60713 -1.089844,-1.51416 -1.089844,-2.757815 V 70.378906 c 0,-3.975043 -1.141194,-6.915456 -3.433593,-8.779297 -2.215655,-1.85829 -5.213548,-2.783203 -8.97461,-2.783203 -2.833234,0 -5.351652,0.353797 -7.554687,1.064453 -2.194452,0.707888 -4.073864,1.523761 -5.636719,2.447266 a 0.13230472,0.13230472 0 0 0 -0.06445,0.113281 v 39.480474 c -0.339322,0.12886 -0.817767,0.26159 -1.482422,0.39453 a 0.13230472,0.13230472 0 0 0 -0.01172,0.004 c -0.691602,0.20748 -1.453423,0.31055 -2.289062,0.31055 -1.498479,0 -2.602941,-0.31279 -3.328125,-0.91992 C 60.929113,101.10381 60.5625,100.19678 60.5625,98.953125 V 62.865234 c 0,-1.463747 0.279219,-2.637449 0.826172,-3.527343 l 0.002,-0.002 c 0.619908,-0.963411 1.661041,-1.904565 3.130859,-2.814453 1.820334,-1.120205 4.244929,-2.139682 7.271485,-3.054687 3.019192,-0.912779 6.429147,-1.371094 10.228515,-1.371094 z m 52.597656,0 c 4.92564,0 8.8939,0.739746 11.90234,2.208984 a 0.13230472,0.13230472 0 0 0 0.002,0.002 c 1.50662,0.700752 2.62965,1.461076 3.37109,2.271484 0.74144,0.810408 1.10352,1.66465 1.10352,2.582031 0,0.893474 -0.23836,1.675886 -0.7168,2.359375 a 0.13230472,0.13230472 0 0 0 -0.006,0.0078 c -0.4007,0.667836 -0.972,1.157621 -1.70117,1.5 -1.27721,-0.842413 -3.03507,-1.745108 -5.33008,-2.71875 -2.34823,-0.996217 -5.11794,-1.492188 -8.30664,-1.492188 -3.19165,0 -5.75837,0.603217 -7.69141,1.820313 a 0.13230472,0.13230472 0 0 0 -0.002,0 c -1.86526,1.219595 -2.81055,2.967208 -2.81055,5.191406 0,1.65153 0.54309,3.066791 1.62305,4.21875 1.08532,1.157677 2.87348,2.010328 5.35547,2.578125 l 7.30273,1.798828 c 4.78266,1.195665 8.35889,2.985835 10.73438,5.361328 a 0.13230472,0.13230472 0 0 0 0,0.002 c 2.37156,2.301811 3.55859,5.434341 3.55859,9.429688 0,4.483153 -1.63582,7.961538 -4.92187,10.478515 -3.2841,2.515478 -8.05092,3.783208 -14.3125,3.783208 -2.67298,0 -5.13377,-0.24674 -7.38086,-0.73829 a 0.13230472,0.13230472 0 0 0 -0.004,0 c -2.24872,-0.42163 -4.17868,-0.98382 -5.78906,-1.68359 -0.001,-5e-4 -0.003,-0.001 -0.004,-0.002 -1.53771,-0.76974 -2.75805,-1.608131 -3.66015,-2.509768 -5.6e-4,-5.52e-4 -0.001,-0.0014 -0.002,-0.002 -0.82771,-0.968395 -1.23242,-1.921854 -1.23242,-2.869141 0,-0.822541 0.20563,-1.608639 0.61719,-2.365234 0.46983,-0.737499 1.15167,-1.37156 2.02148,-1.917969 1.89515,1.392904 4.08554,2.651951 6.59571,3.767578 a 0.13230472,0.13230472 0 0 0 0.002,0.002 c 2.55845,1.066023 5.47055,1.597656 8.73047,1.597656 3.68371,10e-7 6.4598,-0.617471 8.32812,-1.875 1.86833,-1.257528 2.81055,-3.163823 2.81055,-5.666015 0,-2.037515 -0.62114,-3.734399 -1.86133,-5.064453 -1.23985,-1.329699 -3.09116,-2.290674 -5.54101,-2.894532 h -0.002 l -8.78125,-2.328125 c -4.28905,-1.124996 -7.40461,-2.739876 -9.35546,-4.830078 -1.95278,-2.162008 -2.92774,-4.910555 -2.92774,-8.271484 0,-1.816019 0.34701,-3.559894 1.04492,-5.236328 l 0.002,-0.002 c 2.4e-4,-5.84e-4 -2.5e-4,-0.0014 0,-0.002 0.7674,-1.672697 1.91801,-3.136934 3.45507,-4.394532 1.53718,-1.257691 3.42549,-2.238066 5.66993,-2.939453 a 0.13230472,0.13230472 0 0 0 0.002,0 c 2.31159,-0.77053 5.01401,-1.158203 8.10742,-1.158203 z m 154.83398,0.371094 c -1.22797,0 -2.25643,0.402923 -3.05664,1.203125 a 0.13230472,0.13230472 0 0 0 -0.004,0.0039 c -0.72649,0.79914 -1.22821,1.91643 -1.51367,3.34375 a 0.13230472,0.13230472 0 0 0 0.0254,0.107422 c 2.68121,3.457353 5.29192,6.808983 7.83203,10.054687 a 0.13230472,0.13230472 0 0 0 0,0.002 c 2.51942,3.149279 5.25181,6.510671 8.1875,10.076171 -2.37551,2.933133 -4.7515,5.799098 -7.12696,8.59375 -2.40082,2.824503 -4.69574,5.719779 -6.88476,8.685547 -0.91882,1.201746 -1.52147,2.120572 -1.8125,2.775391 a 0.13230472,0.13230472 0 0 0 -0.004,0.0078 c -0.21675,0.578017 -0.32617,1.159256 -0.32617,1.740235 0,1.090663 0.40852,2.014493 1.20899,2.742183 a 0.13230472,0.13230472 0 0 0 0.004,0.004 c 0.8786,0.73216 2.14712,1.08984 3.78906,1.08984 h 1.48047 a 0.13230472,0.13230472 0 0 0 0.10938,-0.0566 c 2.32734,-3.314696 4.72495,-6.665503 7.19336,-10.050778 l 0.002,-0.002 c 2.50287,-3.337149 4.96996,-6.602638 7.4043,-9.802734 1.94029,2.636868 3.87988,5.371546 5.82031,8.212891 a 0.13230472,0.13230472 0 0 0 0.002,0.002 c 2.04649,2.822737 4.02228,5.504305 5.92774,8.044922 a 0.13230472,0.13230472 0 0 0 0.002,0.002 c 0.99058,1.273606 1.83936,2.231196 2.55469,2.874996 a 0.13230472,0.13230472 0 0 0 0.0117,0.01 c 0.80233,0.58351 1.82082,0.87109 3.04101,0.87109 1.29694,0 2.36049,-0.4015 3.16211,-1.20312 0.80021,-0.8002 1.27059,-1.890887 1.41406,-3.253908 a 0.13230472,0.13230472 0 0 0 -0.0273,-0.0957 c -2.75137,-3.527409 -5.53942,-7.019674 -8.36133,-10.476563 l -0.002,-0.0039 c -2.72895,-3.498678 -5.45854,-7.03347 -8.1875,-10.601563 2.23539,-2.655225 4.47166,-5.344002 6.70703,-8.068359 2.32847,-2.822387 4.58606,-5.57456 6.77344,-8.255859 a 0.13230472,0.13230472 0 0 0 0.002,-0.002 c 0.70714,-0.919279 1.20455,-1.734976 1.49414,-2.455079 5.9e-4,-0.0012 -5.8e-4,-0.0027 0,-0.0039 0.36029,-0.721864 0.54297,-1.484434 0.54297,-2.279297 0,-1.158856 -0.44428,-2.088812 -1.31641,-2.746093 -4.3e-4,-3.59e-4 -0.002,3.58e-4 -0.002,0 -0.87571,-0.729126 -2.07425,-1.089844 -3.57617,-1.089844 -0.43068,0 -0.8267,0.03682 -1.18945,0.109375 a 0.13230472,0.13230472 0 0 0 -0.084,0.05469 c -2.46827,3.596627 -4.86471,6.90965 -7.1914,9.941407 -2.29481,2.920665 -4.73181,6.019828 -7.30079,9.283203 -2.07756,-2.703819 -4.09005,-5.407592 -6.03125,-8.111328 l -0.002,-0.0039 c -1.90512,-2.822291 -3.77639,-5.469346 -5.61133,-7.939453 a 0.13230472,0.13230472 0 0 0 -0.002,-0.002 c -0.77858,-0.990928 -1.52348,-1.770966 -2.23828,-2.34375 -0.66425,-0.66114 -1.62008,-0.988281 -2.83985,-0.988281 z M 39.476562,52.677734 c -0.854931,0 -1.675352,0.106814 -2.460937,0.320313 -0.70971,0.141942 -1.244433,0.284883 -1.611328,0.43164 a 0.13230472,0.13230472 0 0 0 -0.08203,0.121094 v 45.402344 c 0,1.296335 0.393792,2.296125 1.185546,2.958985 0.791755,0.66286 1.96265,0.98437 3.498047,0.98437 0.853421,0 1.636903,-0.10661 2.353516,-0.32031 0.70971,-0.14194 1.244434,-0.28293 1.611328,-0.42969 a 0.13230472,0.13230472 0 0 0 0.08203,-0.12304 V 56.726562 c 0,-1.3303 -0.382595,-2.353603 -1.15625,-3.035156 -0.773655,-0.681553 -1.918837,-1.013672 -3.419922,-1.013672 z m 131.021488,0 c -0.85427,0 -1.67591,0.107146 -2.46094,0.320313 -0.70971,0.141942 -1.24443,0.284883 -1.61133,0.43164 a 0.13230472,0.13230472 0 0 0 -0.082,0.121094 v 45.402344 c 0,1.296335 0.39184,2.296125 1.18359,2.958985 0.79176,0.66286 1.96265,0.98437 3.49805,0.98437 0.85343,0 1.63885,-0.1066 2.35547,-0.32031 0.70971,-0.14194 1.24444,-0.28293 1.61133,-0.42969 a 0.13230472,0.13230472 0 0 0 0.082,-0.12304 V 56.726562 c 0,-1.3303 -0.3826,-2.353603 -1.15625,-3.035156 -0.77366,-0.681553 -1.91884,-1.013672 -3.41992,-1.013672 z m 63.8164,0 c -0.85493,0 -1.67535,0.106814 -2.46093,0.320313 -0.70971,0.141942 -1.24248,0.284883 -1.60938,0.43164 a 0.13230472,0.13230472 0 0 0 -0.084,0.121094 v 30.798828 c 0,6.657058 1.88119,11.573026 5.65625,14.707032 a 0.13230472,0.13230472 0 0 0 0.002,0 c 3.84098,3.129689 9.30593,4.685549 16.38086,4.685549 4.03093,0 7.46591,-0.42376 10.30469,-1.27539 2.89873,-0.84841 5.16387,-1.73105 6.80078,-2.656253 1.49298,-0.853134 2.43396,-1.711409 2.80664,-2.603516 0.43378,-0.941422 0.64648,-2.157679 0.64648,-3.65039 V 56.726562 c 0,-1.330896 -0.39207,-2.356032 -1.18359,-3.037109 -0.79152,-0.681076 -1.96409,-1.011719 -3.5,-1.011719 -0.78549,0 -1.56925,0.107139 -2.35352,0.320313 -0.70971,0.141942 -1.24443,0.284883 -1.61133,0.43164 a 0.13230472,0.13230472 0 0 0 -0.082,0.121094 v 40.234375 c -1.11267,0.619192 -2.62243,1.242965 -4.56445,1.867188 -1.95895,0.55927 -4.34437,0.841797 -7.15625,0.841797 -4.21231,0 -7.49618,-0.947737 -9.86523,-2.828125 l -0.002,-0.002 c -2.35869,-1.943803 -3.54687,-5.176623 -3.54687,-9.738281 V 56.726562 c 0,-1.3303 -0.3826,-2.353603 -1.15625,-3.035156 -0.77366,-0.681553 -1.92079,-1.013672 -3.42188,-1.013672 z m 55.13867,0.05469 c 1.1761,0 2.05266,0.306561 2.65821,0.912109 a 0.13230472,0.13230472 0 0 0 0.0117,0.0098 c 0.69463,0.555707 1.42953,1.324555 2.20117,2.30664 l -0.004,-0.002 c 1.83313,2.467666 3.70344,5.110921 5.60742,7.931641 a 0.13230472,0.13230472 0 0 0 0.002,0.0039 c 1.97641,2.752868 4.0231,5.505031 6.14062,8.257813 a 0.13230472,0.13230472 0 0 0 0.20899,0.002 c 2.61056,-3.316127 5.07985,-6.456565 7.4082,-9.419922 2.31802,-3.020455 4.70683,-6.325588 7.16406,-9.904297 0.33203,-0.06328 0.69225,-0.09766 1.0918,-0.09766 1.46066,0 2.59069,0.346087 3.4082,1.027344 a 0.13230472,0.13230472 0 0 0 0.006,0.0039 c 0.81656,0.612419 1.2168,1.443251 1.2168,2.539062 0,0.756064 -0.17153,1.475865 -0.51563,2.164063 a 0.13230472,0.13230472 0 0 0 -0.004,0.0098 c -0.27545,0.688611 -0.76214,1.491363 -1.46289,2.402344 -2.18653,2.680248 -4.44391,5.430646 -6.77149,8.251953 -2.25741,2.751227 -4.51408,5.467775 -6.77148,8.148438 a 0.13230472,0.13230472 0 0 0 -0.004,0.166015 c 2.75191,3.59865 5.50199,7.161353 8.25391,10.689454 a 0.13230472,0.13230472 0 0 0 0.002,0.002 c 2.80843,3.44032 5.58177,6.915572 8.32031,10.425781 -0.14475,1.293814 -0.58378,2.30644 -1.32617,3.04883 -0.75059,0.75059 -1.73156,1.12695 -2.97461,1.12695 -1.177,0 -2.1334,-0.27649 -2.88281,-0.82031 -0.69434,-0.626 -1.53401,-1.57006 -2.51563,-2.832033 v -0.002 c -1.90424,-2.539007 -3.88038,-5.217822 -5.92578,-8.039062 l 0.004,0.002 c -1.97639,-2.894007 -3.95316,-5.680843 -5.92969,-8.363281 a 0.13230472,0.13230472 0 0 0 -0.21289,-0.002 c -2.46963,3.245794 -4.9735,6.562331 -7.51367,9.949218 a 0.13230472,0.13230472 0 0 0 -0.002,0.002 c -2.45591,3.368112 -4.83984,6.699643 -7.15625,9.998048 h -1.41407 c -1.6003,0 -2.80059,-0.34725 -3.61523,-1.02344 l -0.002,-0.002 c -0.75029,-0.68305 -1.11914,-1.51992 -1.11914,-2.544923 0,-0.54528 0.10204,-1.092424 0.30664,-1.640625 v -0.002 c 0.27336,-0.614634 0.86931,-1.527565 1.7832,-2.722657 a 0.13230472,0.13230472 0 0 0 0,-0.002 c 2.1854,-2.960873 4.47807,-5.851956 6.875,-8.671875 2.39959,-2.823039 4.79774,-5.715568 7.19727,-8.679687 a 0.13230472,0.13230472 0 0 0 0,-0.167969 c -2.96264,-3.59748 -5.71461,-6.982142 -8.25391,-10.15625 v -0.002 c -2.52431,-3.225513 -5.11949,-6.557578 -7.7832,-9.992188 0.2803,-1.362431 0.75133,-2.424196 1.42382,-3.166015 l 0.002,-0.002 c 0.7517,-0.750681 1.69731,-1.123047 2.86718,-1.123047 z M 39.476562,52.943359 c 1.462237,0 2.538089,0.321594 3.246094,0.945313 0.708006,0.623719 1.066407,1.557646 1.066406,2.83789 v 45.195318 c -0.339322,0.12886 -0.817767,0.26159 -1.482421,0.39453 a 0.13230472,0.13230472 0 0 0 -0.01172,0.004 c -0.691603,0.20748 -1.453424,0.31055 -2.289063,0.31055 -1.498479,0 -2.602941,-0.31279 -3.328125,-0.91992 -0.725184,-0.60713 -1.091796,-1.51416 -1.091797,-2.757815 V 53.652344 c 0.339322,-0.128872 0.817768,-0.261601 1.482422,-0.394532 a 0.13230472,0.13230472 0 0 0 0.0078,-0.002 c 0.764327,-0.208452 1.564752,-0.3125 2.40039,-0.3125 z m 131.021488,0 c 1.46223,0 2.53809,0.321594 3.24609,0.945313 0.70801,0.623719 1.06641,1.557646 1.06641,2.83789 v 45.195318 c -0.33932,0.12886 -0.81777,0.26159 -1.48243,0.39453 a 0.13230472,0.13230472 0 0 0 -0.0117,0.004 c -0.69161,0.20748 -1.45538,0.31055 -2.29102,0.31055 -1.49848,0 -2.60294,-0.31279 -3.32812,-0.91992 -0.72519,-0.60713 -1.08985,-1.51416 -1.08985,-2.757815 V 53.652344 c 0.33933,-0.128873 0.81777,-0.261601 1.48242,-0.394532 a 0.13230472,0.13230472 0 0 0 0.008,-0.002 c 0.76432,-0.208452 1.56475,-0.3125 2.40039,-0.3125 z m 63.8164,0 c 1.46224,0 2.53809,0.321594 3.2461,0.945313 0.708,0.623719 1.0664,1.557646 1.0664,2.83789 v 27.199219 c 0,4.609159 1.20883,7.937831 3.64649,9.945313 a 0.13230472,0.13230472 0 0 0 0.002,0 c 2.42856,1.92856 5.77809,2.886718 10.03125,2.886718 2.83103,0 5.24088,-0.282548 7.23242,-0.851562 a 0.13230472,0.13230472 0 0 0 0.004,-0.002 c 1.98079,-0.636682 3.54044,-1.272137 4.68164,-1.914063 A 0.13230472,0.13230472 0 0 0 264.29102,93.875 V 53.652344 c 0.33932,-0.128873 0.81776,-0.261601 1.48242,-0.394532 a 0.13230472,0.13230472 0 0 0 0.008,-0.002 c 0.76531,-0.20872 1.52889,-0.3125 2.29297,-0.3125 1.49797,0 2.60271,0.32307 3.32812,0.947266 0.72542,0.624196 1.0918,1.556289 1.0918,2.835937 v 36.830079 c 0,1.469061 -0.21107,2.650359 -0.62305,3.542968 a 0.13230472,0.13230472 0 0 0 -0.002,0.0039 c -0.3335,0.800418 -1.22622,1.63708 -2.69531,2.476562 -1.60864,0.909232 -3.85733,1.787892 -6.74414,2.632812 a 0.13230472,0.13230472 0 0 0 -0.002,0.002 c -2.80564,0.84169 -6.21615,1.26368 -10.22851,1.26368 -7.03612,0 -12.43391,-1.54779 -16.21289,-4.626958 -3.70381,-3.074857 -5.56055,-7.894621 -5.56055,-14.501953 V 53.652344 c 0.33932,-0.128725 0.81663,-0.261764 1.48047,-0.394532 a 0.13230472,0.13230472 0 0 0 0.008,-0.002 c 0.76433,-0.208452 1.56475,-0.3125 2.40039,-0.3125 z"
       id="path2" />
  </g>
</svg>
