<?xml version="1.0" encoding="UTF-8" standalone="no"?>
<!-- Created with Inkscape (http://www.inkscape.org/) -->

<svg
   width="512"
   height="512"
   viewBox="0 0 135.46666 135.46667"
   version="1.1"
   id="svg1"
   xmlns="http://www.w3.org/2000/svg"
   xmlns:svg="http://www.w3.org/2000/svg">
  <defs
     id="defs1" />
  <rect
     style="fill:#1e1e1e;stroke-width:1.12906;stroke-linecap:round;stroke-linejoin:round;stroke-opacity:0"
     id="rect2"
     width="135.46666"
     height="135.46666"
     x="0"
     y="-7.1054274e-15" />
  <rect
     style="fill:#7733cc;fill-opacity:1;stroke:#000000;stroke-width:0.256117;stroke-linecap:round;stroke-linejoin:round;stroke-opacity:0"
     id="rect1"
     width="43.400131"
     height="107.95789"
     x="17.061392"
     y="14.415558" />
  <g
     id="text1">
    <path
       style="color:#000000;-inkscape-font-specification:'Baloo Chettan 2, ';fill:#ffffff;stroke-linecap:round;stroke-linejoin:round;-inkscape-stroke:none"
       d="m 43.920953,102.02323 q -0.529165,0.21166 -1.587495,0.42333 -1.05833,0.3175 -2.328326,0.3175 -4.550819,0 -4.550819,-3.809989 V 53.551714 q 0.529165,-0.211666 1.587495,-0.423332 1.164163,-0.317499 2.434159,-0.317499 4.444986,0 4.444986,3.915821 z m -9.736636,-64.1348 q 0,-2.222493 1.481662,-3.704155 1.587495,-1.587495 4.021654,-1.587495 2.434159,0 3.915821,1.587495 1.481662,1.481662 1.481662,3.704155 0,2.222493 -1.481662,3.809988 -1.481662,1.481662 -3.915821,1.481662 -2.434159,0 -4.021654,-1.481662 -1.481662,-1.587495 -1.481662,-3.809988 z m 39.05234,56.726488 q 3.280823,-4.444986 6.879145,-8.678306 3.598322,-4.23332 7.196644,-8.678306 Q 82.86746,71.860823 79.057472,67.098338 75.247484,62.23002 71.22583,57.044203 q 0.423332,-2.11666 1.481662,-3.280823 1.164163,-1.164163 2.963324,-1.164163 1.799161,0 2.751658,0.952497 1.05833,0.846664 2.222493,2.328326 2.751658,3.704155 5.609149,7.937475 2.963324,4.127487 6.138314,8.254974 3.915821,-4.974151 7.40831,-9.419137 3.49249,-4.550819 7.19664,-9.948302 0.52917,-0.105833 1.16417,-0.105833 2.22249,0 3.49249,1.05833 1.26999,0.952497 1.26999,2.645825 0,1.164163 -0.52916,2.222493 -0.42334,1.05833 -1.48167,2.434159 -3.28082,4.021654 -6.77331,8.254974 -3.38665,4.127487 -6.773309,8.149141 4.127489,5.397483 8.254969,10.689133 4.23332,5.185817 8.36081,10.477467 -0.21166,2.010831 -1.37583,3.174991 -1.16416,1.16416 -3.06915,1.16416 -1.79917,0 -2.96333,-0.84666 -1.05833,-0.9525 -2.53999,-2.857493 -2.85749,-3.809988 -5.926648,-8.043308 -2.963324,-4.339153 -5.926648,-8.360807 -3.704155,4.868318 -7.514143,9.948302 -3.704155,5.079984 -7.196644,10.054136 h -1.481662 q -2.434159,0 -3.704155,-1.05833 -1.164163,-1.05833 -1.164163,-2.645826 0,-0.846664 0.317499,-1.693328 0.423332,-0.952497 1.799161,-2.751658 z"
       id="path1" />
    <path
       style="color:#000000;-inkscape-font-specification:'Baloo Chettan 2, ';fill:#000000;fill-opacity:0;stroke-linecap:round;stroke-linejoin:round;-inkscape-stroke:none"
       d="m 39.6875,32.464844 c -1.65153,0 -3.033,0.542765 -4.115234,1.625 -1.01116,1.011159 -1.519532,2.287769 -1.519532,3.798828 0,1.511058 0.50684,2.819549 1.515625,3.90039 a 0.13230472,0.13230472 0 0 0 0.0078,0.0059 c 1.082985,1.010786 2.461715,1.517578 4.111328,1.517578 1.649613,0 2.996379,-0.508097 4.009766,-1.521484 a 0.13230472,0.13230472 0 0 0 0.002,-0.002 c 1.008785,-1.080841 1.517578,-2.389332 1.517578,-3.90039 0,-1.509467 -0.50854,-2.784271 -1.517578,-3.794922 C 42.686788,33.009003 41.33903,32.464844 39.6875,32.464844 Z m 0,0.263672 c 1.594012,0 2.855242,0.514964 3.818359,1.546875 a 0.13230472,0.13230472 0 0 0 0.0039,0.002 c 0.964387,0.964387 1.443359,2.159065 1.443359,3.611328 0,1.452262 -0.480504,2.682934 -1.447266,3.71875 -0.961769,0.960065 -2.224168,1.439453 -3.818359,1.439453 -1.594248,0 -2.894587,-0.480632 -3.927734,-1.443359 -0.964674,-1.035123 -1.44336,-2.264144 -1.44336,-3.714844 0,-1.452263 0.478972,-2.646941 1.44336,-3.611328 1.034423,-1.034423 2.333722,-1.548828 3.927734,-1.548828 z m 35.982422,19.738281 c -1.227973,0 -2.256438,0.402922 -3.056641,1.203125 a 0.13230472,0.13230472 0 0 0 -0.0039,0.0039 c -0.726491,0.79914 -1.228208,1.91643 -1.513672,3.34375 a 0.13230472,0.13230472 0 0 0 0.02539,0.107422 c 2.681212,3.457353 5.291914,6.808983 7.832031,10.054687 a 0.13230472,0.13230472 0 0 0 0.002,0.002 c 2.51913,3.148912 5.25221,6.509183 8.1875,10.074218 -2.376095,2.933886 -4.750916,5.800365 -7.126953,8.595703 -2.400827,2.824503 -4.695746,5.719779 -6.884766,8.685547 -0.919319,1.202315 -1.523328,2.120361 -1.814453,2.775391 a 0.13230472,0.13230472 0 0 0 -0.002,0.0078 c -0.216756,0.578017 -0.326172,1.159256 -0.326172,1.740235 0,1.090663 0.406562,2.014493 1.207031,2.742183 a 0.13230472,0.13230472 0 0 0 0.0039,0.004 c 0.878596,0.73216 2.147119,1.08984 3.789062,1.08984 h 1.482422 a 0.13230472,0.13230472 0 0 0 0.107422,-0.0566 c 2.327342,-3.314696 4.72495,-6.665503 7.193359,-10.050778 l 0.002,-0.002 c 2.502871,-3.337149 4.969961,-6.602638 7.404297,-9.802734 1.940297,2.636868 3.879882,5.371546 5.820313,8.212891 a 0.13230472,0.13230472 0 0 0 0.002,0.002 c 2.04649,2.822737 4.02227,5.504305 5.92773,8.044922 a 0.13230472,0.13230472 0 0 0 0.002,0.002 c 0.99058,1.273606 1.84131,2.231196 2.55664,2.874996 a 0.13230472,0.13230472 0 0 0 0.01,0.01 c 0.80233,0.58351 1.82082,0.87109 3.04102,0.87109 1.29694,0 2.36049,-0.4015 3.16211,-1.20312 0.80021,-0.8002 1.27059,-1.890887 1.41406,-3.253908 a 0.13230472,0.13230472 0 0 0 -0.0273,-0.0957 c -2.75138,-3.527409 -5.53747,-7.019674 -8.35938,-10.476563 l -0.002,-0.0039 c -2.72895,-3.49868 -5.46049,-7.033467 -8.189454,-10.601563 2.235389,-2.655225 4.471664,-5.344002 6.707034,-8.068359 2.32847,-2.822388 4.58606,-5.57456 6.77344,-8.255859 a 0.13230472,0.13230472 0 0 0 0.002,-0.002 c 0.70928,-0.922063 1.20884,-1.741193 1.49805,-2.462891 0.35898,-0.720698 0.54101,-1.48197 0.54101,-2.275391 0,-1.159326 -0.44553,-2.088767 -1.31836,-2.746093 -0.87582,-0.729849 -2.07351,-1.089844 -3.57617,-1.089844 -0.43068,0 -0.82865,0.03682 -1.19141,0.109375 a 0.13230472,0.13230472 0 0 0 -0.082,0.05469 c -2.46827,3.596627 -4.86666,6.90965 -7.193358,9.941407 h 0.002 c -2.294809,2.920665 -4.731806,6.019828 -7.300782,9.283203 -2.077568,-2.703825 -4.091997,-5.407587 -6.033203,-8.111328 l -0.002,-0.0039 c -1.905121,-2.822291 -3.774439,-5.469347 -5.609375,-7.939453 a 0.13230472,0.13230472 0 0 0 -0.0039,-0.002 c -0.777259,-0.989238 -1.51874,-1.767325 -2.232422,-2.339844 -3.88e-4,-3.88e-4 -0.0016,3.88e-4 -0.002,0 -0.664401,-0.663664 -1.621679,-0.992187 -2.84375,-0.992187 z m -36.19336,0.210937 c -0.854931,0 -1.675352,0.106814 -2.460937,0.320313 -0.70971,0.141942 -1.244433,0.284883 -1.611328,0.43164 a 0.13230472,0.13230472 0 0 0 -0.08203,0.121094 v 45.402344 c 0,1.296335 0.393792,2.296125 1.185546,2.958985 0.791755,0.66286 1.96265,0.98437 3.498047,0.98437 0.853421,0 1.636903,-0.10661 2.353516,-0.32031 0.70971,-0.14194 1.244434,-0.28293 1.611328,-0.42969 a 0.13230472,0.13230472 0 0 0 0.08203,-0.12304 V 56.726562 c 0,-1.3303 -0.382595,-2.353603 -1.15625,-3.035156 -0.773655,-0.681553 -1.918837,-1.013672 -3.419922,-1.013672 z m 36.19336,0.05469 c 1.176094,0 2.052655,0.306561 2.658203,0.912109 a 0.13230472,0.13230472 0 0 0 0.01172,0.0098 c 0.694634,0.555707 1.429533,1.324555 2.201172,2.30664 1.832628,2.467073 3.700063,5.109759 5.603515,7.929688 a 0.13230472,0.13230472 0 0 0 0.002,0.0039 c 1.976418,2.752868 4.023101,5.505031 6.140625,8.257813 a 0.13230472,0.13230472 0 0 0 0.208985,0.002 c 2.610567,-3.316127 5.079851,-6.456565 7.408203,-9.419922 a 0.13230472,0.13230472 0 0 0 0.002,0 c 2.31802,-3.020455 4.70683,-6.325588 7.16406,-9.904297 0.33159,-0.06307 0.69293,-0.09766 1.0918,-0.09766 1.46066,0 2.59069,0.346087 3.4082,1.027344 a 0.13230472,0.13230472 0 0 0 0.004,0.0039 c 0.81655,0.612419 1.2168,1.443251 1.2168,2.539062 0,0.756064 -0.16958,1.475865 -0.51368,2.164063 a 0.13230472,0.13230472 0 0 0 -0.006,0.0098 c -0.27545,0.688612 -0.76213,1.491363 -1.46289,2.402344 -2.18652,2.680247 -4.4439,5.430646 -6.77148,8.251953 -2.25741,2.751227 -4.514083,5.467775 -6.771485,8.148438 a 0.13230472,0.13230472 0 0 0 -0.0039,0.166015 c 2.751911,3.59865 5.503941,7.161353 8.255861,10.689454 a 0.13230472,0.13230472 0 0 0 0.002,0.002 c 2.80843,3.44032 5.58177,6.915572 8.32031,10.425781 -0.14475,1.29382 -0.58377,2.30644 -1.32617,3.04883 -0.75059,0.75059 -1.73352,1.12695 -2.97656,1.12695 -1.17796,0 -2.13313,-0.27757 -2.88281,-0.82226 h -0.002 c -0.69381,-0.6258 -1.53125,-1.56968 -2.51171,-2.830083 l -0.002,-0.002 c -1.90352,-2.538051 -3.87731,-5.217045 -5.921873,-8.037109 l -0.002,-0.002 C 96.238974,88.15174 94.263118,85.36532 92.287109,82.683594 a 0.13230472,0.13230472 0 0 0 -0.210937,-0.002 c -2.469626,3.245794 -4.975459,6.562331 -7.515625,9.949218 a 0.13230472,0.13230472 0 0 0 0,0.002 c -2.455916,3.368114 -4.841787,6.699642 -7.158203,9.998048 h -1.414063 c -1.602776,0 -2.802478,-0.34909 -3.617187,-1.02734 h -0.002 c -0.748834,-0.68269 -1.117188,-1.51895 -1.117188,-2.542973 0,-0.54528 0.102048,-1.092424 0.306641,-1.640625 v -0.002 c 0.27336,-0.614634 0.869309,-1.527565 1.783203,-2.722657 a 0.13230472,0.13230472 0 0 0 0.002,-0.002 c 2.185406,-2.960873 4.476116,-5.851956 6.873047,-8.671875 2.399583,-2.823039 4.799694,-5.715568 7.199219,-8.679687 a 0.13230472,0.13230472 0 0 0 -0.002,-0.167969 c -2.962352,-3.597142 -5.712855,-6.9824 -8.251953,-10.15625 l -0.002,-0.002 c -2.524086,-3.225229 -5.119742,-6.557902 -7.783203,-9.992188 0.280307,-1.362431 0.75133,-2.424196 1.423828,-3.166015 l 0.002,-0.002 c 0.751693,-0.750681 1.697316,-1.123047 2.867188,-1.123047 z m -36.19336,0.210937 c 1.462237,0 2.538089,0.321594 3.246094,0.945313 0.708006,0.623719 1.066407,1.557646 1.066406,2.83789 v 45.195318 c -0.339322,0.12886 -0.817767,0.26159 -1.482421,0.39453 a 0.13230472,0.13230472 0 0 0 -0.01172,0.004 c -0.691603,0.20748 -1.453424,0.31055 -2.289063,0.31055 -1.498479,0 -2.602941,-0.31279 -3.328125,-0.91992 -0.725184,-0.60713 -1.091796,-1.51416 -1.091797,-2.757815 V 53.652344 c 0.339322,-0.128872 0.817768,-0.261601 1.482422,-0.394532 a 0.13230472,0.13230472 0 0 0 0.0078,-0.002 c 0.764327,-0.208452 1.564752,-0.3125 2.40039,-0.3125 z"
       id="path2" />
  </g>
</svg>
